<svg width="20" height="21" viewBox="0 0 20 21" fill="none" xmlns="http://www.w3.org/2000/svg">
<mask id="mask0_3922_900" style="mask-type:luminance" maskUnits="userSpaceOnUse" x="0" y="0" width="20" height="21">
<path d="M10 19.5C11.1821 19.5015 12.3529 19.2694 13.445 18.817C14.5372 18.3646 15.5291 17.7009 16.3639 16.8639C17.2009 16.0291 17.8646 15.0372 18.317 13.945C18.7694 12.8529 19.0015 11.6821 19 10.5C19.0015 9.31788 18.7694 8.14712 18.317 7.055C17.8646 5.96287 17.2009 4.9709 16.3639 4.13611C15.5291 3.29912 14.5372 2.63536 13.445 2.18297C12.3529 1.73057 11.1821 1.49848 10 1.50001C8.81788 1.4985 7.64712 1.73061 6.555 2.183C5.46287 2.63539 4.4709 3.29914 3.63611 4.13611C2.79914 4.9709 2.13539 5.96287 1.683 7.055C1.23061 8.14712 0.998501 9.31788 1.00001 10.5C0.998476 11.6821 1.23057 12.8529 1.68297 13.945C2.13536 15.0372 2.79912 16.0291 3.63611 16.8639C4.4709 17.7009 5.46287 18.3646 6.555 18.817C7.64712 19.2694 8.81788 19.5015 10 19.5Z" fill="white" stroke="white" stroke-width="1.8" stroke-linejoin="round"/>
<path d="M6.40002 10.4998L9.10002 13.1998L14.5 7.7998" stroke="black" stroke-width="1.8" stroke-linecap="round" stroke-linejoin="round"/>
</mask>
<g mask="url(#mask0_3922_900)">
<path d="M-0.800049 -0.299805H20.7999V21.3002H-0.800049V-0.299805Z" fill="#8EBE5B"/>
</g>
</svg>
